<svg width="24" height="16" viewBox="0 0 24 16" fill="none" xmlns="http://www.w3.org/2000/svg">
<mask id="mask0_4373_520" style="mask-type:luminance" maskUnits="userSpaceOnUse" x="0" y="0" width="24" height="16">
<path d="M0 0H24V16H0V0Z" fill="white"/>
</mask>
<g mask="url(#mask0_4373_520)">
<path d="M0.00125122 0H23.9975V16H0.00125122V0Z" fill="#009440"/>
</g>
<path d="M2.58873 8.00001L12 14.0572L21.41 8.00001L12 1.94287L2.58873 8.00001Z" fill="#FFCB00"/>
<path d="M16.1988 8C16.1988 8.2619 16.1725 8.52262 16.1188 8.77976C16.065 9.0369 15.985 9.2881 15.88 9.52976C15.7738 9.77262 15.645 10.0036 15.4913 10.2214C15.3388 10.4405 15.1638 10.6417 14.9688 10.8274C14.7738 11.0131 14.5625 11.1798 14.3325 11.325C14.1038 11.4714 13.8613 11.594 13.6063 11.6952C13.3525 11.7952 13.09 11.8714 12.8188 11.9226C12.5488 11.9738 12.275 12 12 12C11.7238 12 11.4513 11.9738 11.18 11.9226C10.91 11.8714 10.6475 11.7952 10.3925 11.6952C10.1375 11.594 9.89625 11.4714 9.66625 11.325C9.4375 11.1798 9.225 11.0131 9.03 10.8274C8.835 10.6417 8.66125 10.4405 8.5075 10.2214C8.355 10.0036 8.225 9.77262 8.12 9.52976C8.015 9.2881 7.935 9.0369 7.88125 8.77976C7.8275 8.52262 7.8 8.2619 7.8 8C7.8 7.7369 7.8275 7.47619 7.88125 7.21905C7.935 6.9619 8.015 6.7119 8.12 6.46905C8.225 6.22619 8.355 5.99524 8.5075 5.77738C8.66125 5.55833 8.835 5.35714 9.03 5.17143C9.225 4.98571 9.4375 4.81905 9.66625 4.67381C9.89625 4.52738 10.1375 4.40476 10.3925 4.30357C10.6475 4.20357 10.91 4.12738 11.18 4.07619C11.4513 4.025 11.7238 4 12 4C12.275 4 12.5488 4.025 12.8188 4.07619C13.09 4.12738 13.3525 4.20357 13.6063 4.30357C13.8613 4.40476 14.1038 4.52738 14.3325 4.67381C14.5625 4.81905 14.7738 4.98571 14.9688 5.17143C15.1638 5.35714 15.3388 5.55833 15.4913 5.77738C15.645 5.99524 15.7738 6.22619 15.88 6.46905C15.985 6.7119 16.065 6.9619 16.1188 7.21905C16.1725 7.47619 16.1988 7.7369 16.1988 8Z" fill="#302681"/>
<mask id="mask1_4373_520" style="mask-type:luminance" maskUnits="userSpaceOnUse" x="7" y="6" width="10" height="7">
<path d="M7.64748 6.22144H16.2875V12.0119H7.64748V6.22144Z" fill="white"/>
</mask>
<g mask="url(#mask1_4373_520)">
<mask id="mask2_4373_520" style="mask-type:luminance" maskUnits="userSpaceOnUse" x="7" y="4" width="10" height="8">
<path d="M7.79998 8C7.79998 7.46905 7.90748 6.95833 8.11998 6.46905C8.33373 5.97857 8.63623 5.54643 9.02998 5.17143C9.42373 4.79643 9.87873 4.50714 10.3925 4.30357C10.9075 4.10119 11.4425 4 12 4C12.5562 4 13.0925 4.10119 13.6062 4.30357C14.1212 4.50714 14.575 4.79643 14.9687 5.17143C15.3625 5.54643 15.6662 5.97857 15.88 6.46905C16.0925 6.95833 16.1987 7.46905 16.1987 8C16.1987 8.52976 16.0925 9.04048 15.88 9.52976C15.6662 10.0202 15.3625 10.4524 14.9687 10.8274C14.575 11.2024 14.1212 11.4917 13.6062 11.6952C13.0925 11.8976 12.5562 12 12 12C11.4425 12 10.9075 11.8976 10.3925 11.6952C9.87873 11.4917 9.42373 11.2024 9.02998 10.8274C8.63623 10.4524 8.33373 10.0202 8.11998 9.52976C7.90748 9.04048 7.79998 8.52976 7.79998 8Z" fill="white"/>
</mask>
<g mask="url(#mask2_4373_520)">
<path d="M-0.59877 15.9999C-0.59877 10.6345 3.96748 6.28564 9.59998 6.28564C15.2325 6.28564 19.7987 10.6345 19.7987 15.9999H19.1987C19.1987 10.9499 14.9012 6.85707 9.59998 6.85707C4.29873 6.85707 0.00122988 10.9499 0.00122988 15.9999H-0.59877Z" fill="white"/>
</g>
</g>
<path fill-rule="evenodd" clip-rule="evenodd" d="M8.41749 6.82979C8.51624 6.81908 8.58624 6.72503 8.57249 6.62027C8.55874 6.51551 8.46749 6.44051 8.36874 6.45241C8.27124 6.46313 8.20124 6.55718 8.21499 6.66194C8.22874 6.7667 8.31999 6.8417 8.41749 6.82979ZM8.40874 6.75956C8.46749 6.7536 8.50749 6.69408 8.49874 6.6286C8.48999 6.56313 8.43624 6.51551 8.37874 6.52265C8.31999 6.5286 8.27999 6.58813 8.28874 6.6536C8.29749 6.71908 8.35124 6.7667 8.40874 6.75956Z" fill="#009440"/>
<path fill-rule="evenodd" clip-rule="evenodd" d="M8.74375 6.79521L8.81875 6.79045L8.8075 6.64997L8.9675 6.63926C9.0375 6.6345 9.08875 6.57735 9.08375 6.51069C9.07875 6.44521 9.02 6.39521 8.95 6.39997L8.7225 6.41545L8.745 6.79521H8.74375ZM8.8025 6.57854L8.95625 6.56902C8.985 6.56664 9.00625 6.54283 9.00375 6.51664C9.0025 6.48926 8.9775 6.46902 8.94875 6.4714L8.795 6.48092L8.8025 6.57854Z" fill="#009440"/>
<path d="M9.08375 6.77261C9.07875 6.71904 9.07 6.59999 8.985 6.60475L8.87625 6.6119C9.0025 6.60356 9.01125 6.7238 9.015 6.77737" fill="#009440"/>
<path fill-rule="evenodd" clip-rule="evenodd" d="M9.25125 6.76547L9.44 6.76309C9.53375 6.76071 9.61 6.6869 9.6075 6.59642V6.54166C9.605 6.45238 9.5275 6.37976 9.4325 6.38214L9.24375 6.38452L9.25125 6.76547ZM9.32375 6.69404L9.4325 6.69166C9.4925 6.69166 9.54 6.64404 9.53875 6.5869V6.55476C9.5375 6.49761 9.4875 6.45118 9.4275 6.45238L9.32 6.45476L9.32375 6.69404Z" fill="#009440"/>
<path d="M9.75873 6.76062L10.1187 6.77253L10.1212 6.70229L9.82998 6.69276L9.83373 6.59515L10.0612 6.60229L10.0637 6.53681L9.83623 6.52967L9.83873 6.45348L10.1125 6.463L10.115 6.39157L9.77248 6.38086L9.75873 6.76062Z" fill="#009440"/>
<path d="M10.2662 6.78211L10.3337 6.78687L10.3587 6.52734L10.4137 6.79401L10.4762 6.79877L10.58 6.5452L10.5562 6.80592L10.625 6.81187L10.66 6.43211L10.56 6.42377L10.4562 6.67734L10.4 6.41068L10.3012 6.40234L10.2662 6.78211Z" fill="#009440"/>
<path d="M11.095 6.8702L11.39 6.91901L11.4025 6.85472L11.1737 6.81782L11.19 6.7321L11.375 6.76187L11.3862 6.69758L11.2012 6.66663L11.2112 6.60829L11.4325 6.64401L11.4437 6.57972L11.155 6.5321L11.095 6.8702Z" fill="#009440"/>
<path fill-rule="evenodd" clip-rule="evenodd" d="M11.8537 7.013L11.9262 7.02967L11.9637 6.89276L12.1175 6.93205C12.185 6.94752 12.2537 6.90943 12.2712 6.84514C12.2887 6.78205 12.2475 6.71657 12.1812 6.6999L11.96 6.64514L11.8537 7.013ZM11.9825 6.8249L12.1312 6.86181C12.1587 6.86895 12.1862 6.85228 12.1937 6.82609C12.2012 6.7999 12.185 6.77371 12.1575 6.76657L12.0075 6.72967L11.9825 6.8249Z" fill="#009440"/>
<path fill-rule="evenodd" clip-rule="evenodd" d="M12.345 7.13684L12.415 7.15827L12.46 7.02374L12.6125 7.06898C12.6788 7.08922 12.75 7.05469 12.77 6.9916C12.7913 6.9285 12.755 6.86065 12.6888 6.84041L12.47 6.77612L12.345 7.13684ZM12.4825 6.95588L12.63 6.99993C12.6575 7.00827 12.6863 6.99398 12.695 6.96779C12.7025 6.94279 12.6875 6.91541 12.6613 6.90708L12.5138 6.86303L12.4825 6.95588Z" fill="#009440"/>
<path d="M12.6687 7.23449C12.6862 7.1833 12.7237 7.06901 12.6425 7.04401L12.5387 7.01306C12.6587 7.04878 12.6212 7.16306 12.6037 7.21544" fill="#009440"/>
<path fill-rule="evenodd" clip-rule="evenodd" d="M12.9962 7.34642C13.09 7.37975 13.1962 7.32618 13.235 7.22856C13.2737 7.12975 13.23 7.02261 13.1362 6.98928C13.0437 6.95594 12.9362 7.00951 12.8975 7.10832C12.8587 7.20594 12.9037 7.31308 12.9962 7.34642ZM13.0225 7.27975C13.0775 7.29999 13.1412 7.26547 13.1662 7.20356C13.19 7.14166 13.165 7.07499 13.1112 7.05594C13.0562 7.03689 12.9925 7.07023 12.9675 7.13213C12.9437 7.19523 12.9675 7.2607 13.0225 7.27975Z" fill="#009440"/>
<mask id="mask3_4373_520" style="mask-type:luminance" maskUnits="userSpaceOnUse" x="13" y="7" width="1" height="1">
<path d="M13.295 7.13574H13.8V7.61074H13.295V7.13574Z" fill="white"/>
</mask>
<g mask="url(#mask3_4373_520)">
<mask id="mask4_4373_520" style="mask-type:luminance" maskUnits="userSpaceOnUse" x="13" y="7" width="1" height="1">
<path d="M13.3025 7.4595L13.4612 7.1095L13.7925 7.2464L13.6325 7.59521L13.3025 7.4595ZM13.5737 7.29283L13.5475 7.35235L13.7125 7.4214L13.74 7.36069L13.5737 7.29283Z" fill="white"/>
</mask>
<g mask="url(#mask4_4373_520)">
<path fill-rule="evenodd" clip-rule="evenodd" d="M13.4675 7.52735C13.5587 7.56545 13.6687 7.51783 13.7125 7.4214C13.7562 7.32497 13.7175 7.21545 13.6262 7.17854C13.535 7.14045 13.4262 7.18806 13.3825 7.28449C13.3375 7.38092 13.3762 7.48926 13.4675 7.52735ZM13.4975 7.46306C13.55 7.48449 13.6162 7.45354 13.6437 7.39283C13.6725 7.33211 13.6512 7.26545 13.5975 7.24283C13.5437 7.2214 13.4775 7.25235 13.45 7.31306C13.4225 7.37378 13.4437 7.44045 13.4975 7.46306Z" fill="#009440"/>
</g>
</g>
<path d="M13.5737 7.36438L13.7125 7.42152L13.69 7.47152L13.55 7.41319L13.5737 7.36438Z" fill="#009440"/>
<path d="M13.66 7.40002L13.7125 7.42145L13.6325 7.59526L13.58 7.57383L13.66 7.40002Z" fill="#009440"/>
<path fill-rule="evenodd" clip-rule="evenodd" d="M13.7663 7.65594L13.8325 7.68689L13.8988 7.5607L14.0425 7.62856C14.105 7.65713 14.18 7.63332 14.2113 7.57498C14.2425 7.51546 14.2163 7.44403 14.155 7.41427L13.95 7.31665L13.7663 7.65594ZM13.9325 7.4976L14.07 7.56308C14.0963 7.57498 14.1263 7.56546 14.1388 7.54046C14.1513 7.51665 14.1413 7.48689 14.1163 7.47498L13.9788 7.40951L13.9325 7.4976Z" fill="#009440"/>
<path d="M14.07 7.80011C14.0962 7.7513 14.1525 7.64415 14.075 7.60725L13.9787 7.56201C14.0912 7.61558 14.035 7.72154 14.0087 7.77154" fill="#009440"/>
<path d="M14.2187 7.87499L14.5325 8.04404L14.5687 7.98213L14.315 7.84523L14.3662 7.7607L14.565 7.86785L14.5987 7.8107L14.4 7.70356L14.4387 7.63689L14.6775 7.76547L14.715 7.70356L14.4162 7.54285L14.2187 7.87499Z" fill="#009440"/>
<path d="M14.8025 8.06066C14.7812 8.0928 14.8025 8.12851 14.8512 8.15828C14.9 8.18804 14.9325 8.18685 14.9462 8.16542C14.99 8.09994 14.7362 8.00471 14.815 7.89161C14.8825 7.7928 14.9962 7.86899 15.04 7.89518C15.0837 7.92137 15.1537 7.99042 15.0987 8.06899L15.0262 8.02375C15.0487 7.98923 15.0237 7.9559 14.985 7.93328C14.9462 7.90947 14.9175 7.89994 14.895 7.93328C14.8575 7.98685 15.105 8.08685 15.03 8.19994C14.9737 8.28447 14.8762 8.24756 14.8112 8.20828C14.755 8.17494 14.6725 8.09518 14.7262 8.01542L14.8025 8.06066Z" fill="#009440"/>
<path d="M15.2312 8.331C15.2087 8.36195 15.2287 8.39886 15.275 8.431C15.3212 8.46195 15.355 8.46314 15.3687 8.4429C15.4162 8.37981 15.1687 8.27267 15.2537 8.16195C15.3262 8.0679 15.4362 8.15005 15.4787 8.17743C15.52 8.206 15.5862 8.27743 15.5275 8.35362L15.4562 8.30481C15.4812 8.27267 15.4575 8.23814 15.4212 8.21195C15.3837 8.18695 15.355 8.17624 15.3312 8.20838C15.2912 8.25957 15.5325 8.37267 15.4512 8.48219C15.39 8.56314 15.295 8.52148 15.2325 8.47862C15.1787 8.4429 15.1 8.35957 15.1587 8.28219L15.2325 8.33219L15.2312 8.331Z" fill="#009440"/>
<path fill-rule="evenodd" clip-rule="evenodd" d="M15.6375 8.77022C15.715 8.82855 15.8337 8.80951 15.9025 8.72736C15.9712 8.64522 15.9637 8.53093 15.8862 8.47141C15.8087 8.41308 15.69 8.43212 15.6212 8.51427C15.5525 8.59641 15.56 8.7107 15.6375 8.77022ZM15.6837 8.71427C15.73 8.74879 15.8012 8.73451 15.845 8.68332C15.8875 8.63093 15.8862 8.5607 15.84 8.52617C15.795 8.49165 15.7225 8.50593 15.6787 8.55832C15.6362 8.60951 15.6375 8.67974 15.6837 8.71427Z" fill="#009440"/>
<path d="M8.57125 7.1095L8.51625 7.27259L8.60125 7.29878" fill="white"/>
<path d="M8.57121 7.1095L8.62746 7.27259L8.54121 7.29878" fill="white"/>
<path d="M8.74248 7.22852H8.56248V7.31423" fill="white"/>
<path d="M8.74246 7.22852L8.59746 7.32852L8.54496 7.25947" fill="white"/>
<path d="M8.4 7.22852L8.54625 7.32852L8.59875 7.25947" fill="white"/>
<path d="M8.4 7.22852H8.58V7.31423" fill="white"/>
<path d="M8.67748 7.42018L8.62123 7.25708L8.53623 7.28327" fill="white"/>
<path d="M8.6775 7.42024L8.53125 7.31905L8.585 7.25" fill="white"/>
<path d="M8.46621 7.42024L8.61121 7.31905L8.55871 7.25" fill="white"/>
<path d="M8.46621 7.42018L8.52121 7.25708L8.60746 7.28327" fill="white"/>
<path d="M8.9425 8.79163L8.8875 8.95472L8.9725 8.98091" fill="white"/>
<path d="M8.94246 8.79163L8.99871 8.95472L8.91246 8.98091" fill="white"/>
<path d="M9.11373 8.90955H8.93373V8.99526" fill="white"/>
<path d="M9.11371 8.90955L8.96871 9.01074L8.91621 8.94169" fill="white"/>
<path d="M8.77248 8.90955L8.91748 9.01074L8.96998 8.94169" fill="white"/>
<path d="M8.77248 8.90955H8.95248V8.99526" fill="white"/>
<path d="M9.04873 9.10121L8.99373 8.93811L8.90748 8.96549" fill="white"/>
<path d="M9.04873 9.10115L8.90373 8.99996L8.95623 8.93091" fill="white"/>
<path d="M8.83746 9.10115L8.98246 8.99996L8.92996 8.93091" fill="white"/>
<path d="M8.83746 9.10121L8.89246 8.93811L8.97871 8.96549" fill="white"/>
<path d="M8.42873 9.17847L8.38248 9.31418L8.45373 9.3368" fill="white"/>
<path d="M8.42875 9.17847L8.475 9.31418L8.40375 9.3368" fill="white"/>
<path d="M8.57121 9.27734H8.42121V9.34877" fill="white"/>
<path d="M8.57121 9.27734L8.44996 9.36187L8.40621 9.30353" fill="white"/>
<path d="M8.28621 9.27734L8.40746 9.36187L8.45121 9.30353" fill="white"/>
<path d="M8.28621 9.27734H8.43621V9.34877" fill="white"/>
<path d="M8.51746 9.43686L8.46996 9.30115L8.39871 9.32377" fill="white"/>
<path d="M8.51746 9.43695L8.39496 9.35362L8.43996 9.29529" fill="white"/>
<path d="M8.34123 9.43695L8.46248 9.35362L8.41748 9.29529" fill="white"/>
<path d="M8.34123 9.43686L8.38748 9.30115L8.45873 9.32377" fill="white"/>
<path d="M9.35373 8.63574L9.32748 8.71431L9.36873 8.72622" fill="white"/>
<path d="M9.35371 8.63574L9.38121 8.71431L9.33996 8.72622" fill="white"/>
<path d="M9.43623 8.69275H9.34998V8.73323" fill="white"/>
<path d="M9.43625 8.69275L9.36625 8.74037L9.34125 8.70703" fill="white"/>
<path d="M9.27246 8.69275L9.34246 8.74037L9.36746 8.70703" fill="white"/>
<path d="M9.27246 8.69275H9.35871V8.73323" fill="white"/>
<path d="M9.405 8.78331L9.37875 8.70593L9.3375 8.71903" fill="white"/>
<path d="M9.40498 8.78338L9.33498 8.73576L9.35998 8.70361" fill="white"/>
<path d="M9.30375 8.78338L9.37375 8.73576L9.34875 8.70361" fill="white"/>
<path d="M9.30375 8.78331L9.33 8.70593L9.37125 8.71903" fill="white"/>
<path d="M9.81746 9.21667L9.77121 9.35239L9.84246 9.37501" fill="white"/>
<path d="M9.81748 9.21667L9.86373 9.35239L9.79248 9.37501" fill="white"/>
<path d="M9.96 9.31543H9.81V9.38686" fill="white"/>
<path d="M9.95996 9.31543L9.83871 9.39995L9.79371 9.34162" fill="white"/>
<path d="M9.675 9.31543L9.79625 9.39995L9.84 9.34162" fill="white"/>
<path d="M9.675 9.31543H9.825V9.38686" fill="white"/>
<path d="M9.905 9.47507L9.85875 9.33936L9.7875 9.36197" fill="white"/>
<path d="M9.905 9.47504L9.78375 9.39171L9.8275 9.33337" fill="white"/>
<path d="M9.72873 9.47504L9.84998 9.39171L9.80623 9.33337" fill="white"/>
<path d="M9.72873 9.47507L9.77498 9.33936L9.84623 9.36197" fill="white"/>
<path d="M9.69123 9.64282L9.65373 9.75116L9.71123 9.76901" fill="white"/>
<path d="M9.69125 9.64282L9.72875 9.75116L9.67125 9.76901" fill="white"/>
<path d="M9.80496 9.72144H9.68496V9.77858" fill="white"/>
<path d="M9.80498 9.72144L9.70873 9.78929L9.67248 9.74286" fill="white"/>
<path d="M9.5775 9.72144L9.675 9.78929L9.71 9.74286" fill="white"/>
<path d="M9.5775 9.72144H9.6975V9.77858" fill="white"/>
<path d="M9.7625 9.85L9.725 9.74048L9.6675 9.75834" fill="white"/>
<path d="M9.76248 9.85003L9.66498 9.78218L9.69998 9.73694" fill="white"/>
<path d="M9.62121 9.85003L9.71871 9.78218L9.68246 9.73694" fill="white"/>
<path d="M9.62121 9.85L9.65871 9.74048L9.71496 9.75834" fill="white"/>
<path d="M13.3025 6.58691L13.2462 6.75001L13.3325 6.7762" fill="white"/>
<path d="M13.3025 6.58691L13.3587 6.75001L13.2725 6.7762" fill="white"/>
<path d="M13.4737 6.70593H13.2937V6.79165" fill="white"/>
<path d="M13.4737 6.70593L13.3275 6.80593L13.275 6.73689" fill="white"/>
<path d="M13.1312 6.70593L13.2762 6.80593L13.33 6.73689" fill="white"/>
<path d="M13.1312 6.70593H13.3112V6.79165" fill="white"/>
<path d="M13.4075 6.89759L13.3525 6.7345L13.2662 6.76069" fill="white"/>
<path d="M13.4075 6.89753L13.2625 6.79634L13.315 6.72729" fill="white"/>
<path d="M13.1962 6.89753L13.3425 6.79634L13.29 6.72729" fill="white"/>
<path d="M13.1962 6.89759L13.2525 6.7345L13.3375 6.76069" fill="white"/>
<path d="M14.9425 9.23218L14.8862 9.39527L14.9725 9.42146" fill="white"/>
<path d="M14.9425 9.23218L14.9975 9.39527L14.9125 9.42146" fill="white"/>
<path d="M15.1137 9.34998H14.9337V9.43569" fill="white"/>
<path d="M15.1137 9.34998L14.9675 9.45117L14.915 9.38212" fill="white"/>
<path d="M14.7713 9.34998L14.9163 9.45117L14.97 9.38212" fill="white"/>
<path d="M14.7713 9.34998H14.9513V9.43569" fill="white"/>
<path d="M15.0475 9.54286L14.9925 9.37976L14.9062 9.40595" fill="white"/>
<path d="M15.0475 9.54292L14.9025 9.44173L14.955 9.37268" fill="white"/>
<path d="M14.8362 9.54292L14.9825 9.44173L14.9287 9.37268" fill="white"/>
<path d="M14.8362 9.54286L14.8925 9.37976L14.9775 9.40595" fill="white"/>
<path d="M15.525 9.32739L15.4875 9.43573L15.545 9.45358" fill="white"/>
<path d="M15.525 9.32739L15.5625 9.43573L15.505 9.45358" fill="white"/>
<path d="M15.6387 9.40588H15.5187V9.46303" fill="white"/>
<path d="M15.6388 9.40588L15.5413 9.47374L15.5063 9.42731" fill="white"/>
<path d="M15.4112 9.40588L15.5075 9.47374L15.5437 9.42731" fill="white"/>
<path d="M15.4112 9.40588H15.5312V9.46303" fill="white"/>
<path d="M15.595 9.53457L15.5575 9.42505L15.5012 9.44291" fill="white"/>
<path d="M15.595 9.53445L15.4987 9.46659L15.5337 9.42017" fill="white"/>
<path d="M15.455 9.53445L15.5512 9.46659L15.5162 9.42017" fill="white"/>
<path d="M15.455 9.53457L15.4912 9.42505L15.5487 9.44291" fill="white"/>
<path d="M15.1138 9.61426L15.0675 9.74997L15.1388 9.77259" fill="white"/>
<path d="M15.1137 9.61426L15.16 9.74997L15.0887 9.77259" fill="white"/>
<path d="M15.2562 9.71313H15.1062V9.78456" fill="white"/>
<path d="M15.2562 9.71313L15.135 9.79647L15.0912 9.73933" fill="white"/>
<path d="M14.9712 9.71313L15.0925 9.79647L15.1362 9.73933" fill="white"/>
<path d="M14.9712 9.71313H15.1212V9.78456" fill="white"/>
<path d="M15.2012 9.87265L15.155 9.73694L15.0837 9.75956" fill="white"/>
<path d="M15.2012 9.8725L15.08 9.78917L15.125 9.73083" fill="white"/>
<path d="M15.025 9.8725L15.1462 9.78917L15.1025 9.73083" fill="white"/>
<path d="M15.025 9.87265L15.0712 9.73694L15.1425 9.75956" fill="white"/>
<path d="M14.1025 10.4524L14.0562 10.5881L14.1275 10.6107" fill="white"/>
<path d="M14.1025 10.4524L14.1487 10.5881L14.0775 10.6107" fill="white"/>
<path d="M14.245 10.5511H14.095V10.6226" fill="white"/>
<path d="M14.245 10.5511L14.1237 10.6345L14.0787 10.5773" fill="white"/>
<path d="M13.96 10.5511L14.0812 10.6345L14.125 10.5773" fill="white"/>
<path d="M13.96 10.5511H14.11V10.6226" fill="white"/>
<path d="M14.19 10.7107L14.1437 10.575L14.0725 10.5976" fill="white"/>
<path d="M14.19 10.7108L14.0687 10.6274L14.1125 10.5691" fill="white"/>
<path d="M14.0137 10.7108L14.135 10.6274L14.0912 10.5691" fill="white"/>
<path d="M14.0137 10.7107L14.06 10.575L14.1312 10.5976" fill="white"/>
<path d="M14.0962 10.8833L14.0587 10.9928L14.1162 11.0107" fill="white"/>
<path d="M14.0962 10.8833L14.1337 10.9928L14.0762 11.0107" fill="white"/>
<path d="M14.2112 10.9631H14.0912V11.0203" fill="white"/>
<path d="M14.2112 10.9631L14.1137 11.0298L14.0787 10.9834" fill="white"/>
<path d="M13.9825 10.9631L14.08 11.0298L14.115 10.9834" fill="white"/>
<path d="M13.9825 10.9631H14.1025V11.0203" fill="white"/>
<path d="M14.1675 11.0905L14.13 10.9822L14.0725 11" fill="white"/>
<path d="M14.1675 11.0905L14.07 11.0238L14.105 10.9774" fill="white"/>
<path d="M14.0262 11.0905L14.1237 11.0238L14.0875 10.9774" fill="white"/>
<path d="M14.0262 11.0905L14.0637 10.9822L14.12 11" fill="white"/>
<path d="M14.5187 10.1655L14.4825 10.2739L14.5387 10.2917" fill="white"/>
<path d="M14.5187 10.1655L14.5562 10.2739L14.5 10.2917" fill="white"/>
<path d="M14.6337 10.2441H14.5137V10.3013" fill="white"/>
<path d="M14.6338 10.2441L14.5363 10.312L14.5013 10.2656" fill="white"/>
<path d="M14.405 10.2441L14.5025 10.312L14.5375 10.2656" fill="white"/>
<path d="M14.405 10.2441H14.525V10.3013" fill="white"/>
<path d="M14.59 10.3726L14.5525 10.2631L14.495 10.2809" fill="white"/>
<path d="M14.59 10.3726L14.4925 10.3047L14.5275 10.2583" fill="white"/>
<path d="M14.4487 10.3726L14.5462 10.3047L14.5112 10.2583" fill="white"/>
<path d="M14.4487 10.3726L14.4862 10.2631L14.5425 10.2809" fill="white"/>
<path d="M14.8562 9.93567L14.81 10.0714L14.8812 10.0928" fill="white"/>
<path d="M14.8563 9.93567L14.9025 10.0714L14.8313 10.0928" fill="white"/>
<path d="M14.9987 10.0345H14.8487V10.106" fill="white"/>
<path d="M14.9987 10.0345L14.8775 10.1179L14.8337 10.0607" fill="white"/>
<path d="M14.7137 10.0345L14.835 10.1179L14.8787 10.0607" fill="white"/>
<path d="M14.7137 10.0345H14.8637V10.106" fill="white"/>
<path d="M14.945 10.1941L14.8987 10.0583L14.8275 10.081" fill="white"/>
<path d="M14.945 10.194L14.8225 10.1095L14.8675 10.0524" fill="white"/>
<path d="M14.7687 10.194L14.89 10.1095L14.845 10.0524" fill="white"/>
<path d="M14.7687 10.1941L14.815 10.0583L14.8862 10.081" fill="white"/>
<path d="M14.085 10.0892L14.0475 10.1976L14.105 10.2154" fill="white"/>
<path d="M14.085 10.0892L14.1225 10.1976L14.065 10.2154" fill="white"/>
<path d="M14.1987 10.1678H14.0787V10.225" fill="white"/>
<path d="M14.1988 10.1678L14.1025 10.2357L14.0663 10.1893" fill="white"/>
<path d="M13.9712 10.1678L14.0687 10.2357L14.1037 10.1893" fill="white"/>
<path d="M13.9712 10.1678H14.0912V10.225" fill="white"/>
<path d="M14.155 10.2964L14.1187 10.1869L14.0612 10.2047" fill="white"/>
<path d="M14.155 10.2964L14.0587 10.2286L14.0937 10.1821" fill="white"/>
<path d="M14.015 10.2964L14.1112 10.2286L14.0762 10.1821" fill="white"/>
<path d="M14.015 10.2964L14.0512 10.1869L14.1087 10.2047" fill="white"/>
<path d="M10.4 8.02026L10.3538 8.15598L10.425 8.17741" fill="white"/>
<path d="M10.4 8.02026L10.4462 8.15598L10.375 8.17741" fill="white"/>
<path d="M10.5425 8.11902H10.3925V8.19045" fill="white"/>
<path d="M10.5425 8.11902L10.4212 8.20235L10.3775 8.14402" fill="white"/>
<path d="M10.2575 8.11902L10.3787 8.20235L10.4225 8.14402" fill="white"/>
<path d="M10.2575 8.11902H10.4075V8.19045" fill="white"/>
<path d="M10.4887 8.27866L10.4425 8.14294L10.37 8.16437" fill="white"/>
<path d="M10.4887 8.27863L10.3662 8.19411L10.4112 8.13696" fill="white"/>
<path d="M10.3112 8.27863L10.4337 8.19411L10.3887 8.13696" fill="white"/>
<path d="M10.3112 8.27866L10.3587 8.14294L10.43 8.16437" fill="white"/>
<path d="M13.1425 7.68335L13.105 7.79287L13.1625 7.81073" fill="white"/>
<path d="M13.1425 7.68335L13.18 7.79287L13.1225 7.81073" fill="white"/>
<path d="M13.2562 7.76306H13.1362V7.8202" fill="white"/>
<path d="M13.2562 7.76306L13.1587 7.82973L13.1237 7.7833" fill="white"/>
<path d="M13.0287 7.76306L13.125 7.82973L13.1612 7.7833" fill="white"/>
<path d="M13.0287 7.76306H13.1487V7.8202" fill="white"/>
<path d="M13.2125 7.89044L13.1762 7.7821L13.1187 7.79996" fill="white"/>
<path d="M13.2125 7.89044L13.1162 7.82377L13.1512 7.77734" fill="white"/>
<path d="M13.0712 7.89044L13.1687 7.82377L13.1337 7.77734" fill="white"/>
<path d="M13.0712 7.89044L13.1087 7.7821L13.1662 7.79996" fill="white"/>
<path d="M12 9.62378L11.9438 9.78687L12.03 9.81307" fill="white"/>
<path d="M12 9.62378L12.055 9.78687L11.97 9.81307" fill="white"/>
<path d="M12.1712 9.7428H11.9912V9.82851" fill="white"/>
<path d="M12.1712 9.7428L12.025 9.8428L11.9725 9.77375" fill="white"/>
<path d="M11.8287 9.7428L11.9737 9.8428L12.0275 9.77375" fill="white"/>
<path d="M11.8287 9.7428H12.0087V9.82851" fill="white"/>
<path d="M12.105 9.93458L12.05 9.77148L11.9637 9.79767" fill="white"/>
<path d="M12.105 9.93452L11.96 9.83333L12.0125 9.76428" fill="white"/>
<path d="M11.8937 9.93452L12.04 9.83333L11.9862 9.76428" fill="white"/>
<path d="M11.8937 9.93458L11.95 9.77148L12.035 9.79767" fill="white"/>
<path d="M12.485 8.8584L12.4388 8.99411L12.51 9.01554" fill="white"/>
<path d="M12.485 8.8584L12.5312 8.99411L12.46 9.01554" fill="white"/>
<path d="M12.6275 8.95715H12.4775V9.02858" fill="white"/>
<path d="M12.6275 8.95715L12.5062 9.04049L12.4625 8.98334" fill="white"/>
<path d="M12.3425 8.95715L12.4637 9.04049L12.5087 8.98334" fill="white"/>
<path d="M12.3425 8.95715H12.4925V9.02858" fill="white"/>
<path d="M12.5737 9.11655L12.5275 8.98083L12.4562 9.00226" fill="white"/>
<path d="M12.5737 9.11664L12.4525 9.03212L12.4962 8.97498" fill="white"/>
<path d="M12.3975 9.11664L12.5188 9.03212L12.4738 8.97498" fill="white"/>
<path d="M12.3975 9.11655L12.4438 8.98083L12.515 9.00226" fill="white"/>
<path d="M12 8.49878L11.9537 8.63449L12.025 8.65711" fill="white"/>
<path d="M12 8.49878L12.0462 8.63449L11.975 8.65711" fill="white"/>
<path d="M12.1425 8.59766H11.9925V8.66908" fill="white"/>
<path d="M12.1425 8.59766L12.0212 8.68099L11.9762 8.62385" fill="white"/>
<path d="M11.8575 8.59766L11.9787 8.68099L12.0225 8.62385" fill="white"/>
<path d="M11.8575 8.59766H12.0075V8.66908" fill="white"/>
<path d="M12.0875 8.75717L12.0413 8.62146L11.97 8.64408" fill="white"/>
<path d="M12.0875 8.75715L11.9662 8.67381L12.01 8.61548" fill="white"/>
<path d="M11.9112 8.75715L12.0325 8.67381L11.9887 8.61548" fill="white"/>
<path d="M11.9112 8.75717L11.9575 8.62146L12.0287 8.64408" fill="white"/>
<path d="M11.5775 8.88696L11.54 8.9953L11.5962 9.01315" fill="white"/>
<path d="M11.5775 8.88696L11.6137 8.9953L11.5575 9.01315" fill="white"/>
<path d="M11.6912 8.96558H11.5712V9.02272" fill="white"/>
<path d="M11.6912 8.96558L11.5937 9.03224L11.5587 8.987" fill="white"/>
<path d="M11.4625 8.96558L11.56 9.03224L11.595 8.987" fill="white"/>
<path d="M11.4625 8.96558H11.5825V9.02272" fill="white"/>
<path d="M11.6475 9.09283L11.61 8.9845L11.5538 9.00235" fill="white"/>
<path d="M11.6475 9.09295L11.55 9.02629L11.585 8.97986" fill="white"/>
<path d="M11.5062 9.09295L11.6037 9.02629L11.5687 8.97986" fill="white"/>
<path d="M11.5062 9.09283L11.5437 8.9845L11.6012 9.00235" fill="white"/>
<path d="M11.7887 9.19641L11.7625 9.27498L11.8025 9.28689" fill="white"/>
<path d="M11.7887 9.19641L11.815 9.27498L11.7737 9.28689" fill="white"/>
<path d="M11.87 9.25366H11.7837V9.29414" fill="white"/>
<path d="M11.87 9.25366L11.8 9.30128L11.775 9.26795" fill="white"/>
<path d="M11.7062 9.25366L11.7762 9.30128L11.8012 9.26795" fill="white"/>
<path d="M11.7062 9.25366H11.7925V9.29414" fill="white"/>
<path d="M11.8388 9.34398L11.8125 9.2666L11.7713 9.2797" fill="white"/>
<path d="M11.8387 9.34401L11.7687 9.29639L11.795 9.26306" fill="white"/>
<path d="M11.7375 9.34401L11.8075 9.29639L11.7825 9.26306" fill="white"/>
<path d="M11.7375 9.34398L11.7638 9.2666L11.805 9.2797" fill="white"/>
<path d="M13.2562 10.55L13.21 10.6858L13.2812 10.7084" fill="white"/>
<path d="M13.2562 10.55L13.3025 10.6858L13.2312 10.7084" fill="white"/>
<path d="M13.4 10.6487H13.25V10.7201" fill="white"/>
<path d="M13.4 10.6487L13.2775 10.7332L13.2337 10.6749" fill="white"/>
<path d="M13.1138 10.6487L13.235 10.7332L13.28 10.6749" fill="white"/>
<path d="M13.1138 10.6487H13.2638V10.7201" fill="white"/>
<path d="M13.345 10.8083L13.2987 10.6726L13.2275 10.6952" fill="white"/>
<path d="M13.345 10.8083L13.2237 10.725L13.2675 10.6666" fill="white"/>
<path d="M13.1687 10.8083L13.29 10.725L13.2462 10.6666" fill="white"/>
<path d="M13.1687 10.8083L13.215 10.6726L13.2862 10.6952" fill="white"/>
<path d="M13.6162 10.225L13.58 10.3345L13.6362 10.3512" fill="white"/>
<path d="M13.6162 10.225L13.6537 10.3345L13.5962 10.3512" fill="white"/>
<path d="M13.7312 10.3048H13.6112V10.362" fill="white"/>
<path d="M13.7312 10.3048L13.6337 10.3715L13.5987 10.325" fill="white"/>
<path d="M13.5025 10.3048L13.6 10.3715L13.635 10.325" fill="white"/>
<path d="M13.5025 10.3048H13.6225V10.362" fill="white"/>
<path d="M13.6875 10.4321L13.65 10.3237L13.5925 10.3404" fill="white"/>
<path d="M13.6875 10.4322L13.59 10.3655L13.625 10.3191" fill="white"/>
<path d="M13.5462 10.4322L13.6437 10.3655L13.6075 10.3191" fill="white"/>
<path d="M13.5462 10.4321L13.5837 10.3237L13.64 10.3404" fill="white"/>
<path d="M12.925 10.1273L12.8875 10.2357L12.945 10.2535" fill="white"/>
<path d="M12.925 10.1273L12.9625 10.2357L12.905 10.2535" fill="white"/>
<path d="M13.04 10.2059H12.92V10.2631" fill="white"/>
<path d="M13.04 10.2059L12.9425 10.2738L12.9075 10.2274" fill="white"/>
<path d="M12.8112 10.2059L12.9087 10.2738L12.9437 10.2274" fill="white"/>
<path d="M12.8112 10.2059H12.9312V10.2631" fill="white"/>
<path d="M12.9962 10.3345L12.9587 10.225L12.9012 10.2428" fill="white"/>
<path d="M12.9962 10.3345L12.8987 10.2666L12.9337 10.2202" fill="white"/>
<path d="M12.855 10.3345L12.9525 10.2666L12.9162 10.2202" fill="white"/>
<path d="M12.855 10.3345L12.8925 10.225L12.9487 10.2428" fill="white"/>
<path d="M10.3137 9.94995L10.2587 10.113L10.3437 10.1404" fill="white"/>
<path d="M10.3137 9.94995L10.37 10.113L10.2837 10.1404" fill="white"/>
<path d="M10.485 10.0691H10.305V10.1548" fill="white"/>
<path d="M10.485 10.0691L10.34 10.1703L10.2862 10.1" fill="white"/>
<path d="M10.1425 10.0691L10.2887 10.1703L10.3412 10.1" fill="white"/>
<path d="M10.1425 10.0691H10.3225V10.1548" fill="white"/>
<path d="M10.42 10.2608L10.3637 10.0977L10.2787 10.1238" fill="white"/>
<path d="M10.42 10.2608L10.275 10.1596L10.3275 10.0906" fill="white"/>
<path d="M10.2087 10.2608L10.3537 10.1596L10.3012 10.0906" fill="white"/>
<path d="M10.2087 10.2608L10.2637 10.0977L10.35 10.1238" fill="white"/>
<path d="M12 11.0273L11.965 11.1285L12.0187 11.144" fill="white"/>
<path d="M12 11.0273L12.0337 11.1285L11.9812 11.144" fill="white"/>
<path d="M12.105 11.1012H11.9937V11.1536" fill="white"/>
<path d="M12.105 11.1012L12.015 11.1631L11.9825 11.1202" fill="white"/>
<path d="M11.8937 11.1012L11.9837 11.1631L12.0162 11.1202" fill="white"/>
<path d="M11.8937 11.1012H12.005V11.1536" fill="white"/>
<path d="M12.065 11.219L12.0312 11.1178L11.9775 11.1345" fill="white"/>
<path d="M12.065 11.2191L11.975 11.1572L12.0075 11.1144" fill="white"/>
<path d="M11.935 11.2191L12.025 11.1572L11.9912 11.1144" fill="white"/>
<path d="M11.935 11.219L11.9687 11.1178L12.0212 11.1345" fill="white"/>
</svg>
