<svg width="60" height="26" viewBox="0 0 60 26" fill="none" xmlns="http://www.w3.org/2000/svg">
<g clip-path="url(#clip0_4382_581)">
<mask id="mask0_4382_581" style="mask-type:luminance" maskUnits="userSpaceOnUse" x="0" y="0" width="11" height="11">
<path d="M0 0H10.0686V10.1429H0V0Z" fill="white"/>
</mask>
<g mask="url(#mask0_4382_581)">
<path fill-rule="evenodd" clip-rule="evenodd" d="M10.0435 0L0 10.0441V2.30245C0 2.22712 0.00390632 2.15178 0.0117187 2.07701C0.0195313 2.00223 0.030692 1.92745 0.0452008 1.85379C0.0602677 1.78013 0.0786829 1.70703 0.100446 1.63504C0.122768 1.56306 0.147879 1.49219 0.176897 1.42243C0.205915 1.35268 0.238281 1.28515 0.273995 1.21875C0.309152 1.15234 0.348213 1.08761 0.390067 1.02511C0.43192 0.962611 0.476563 0.901784 0.524552 0.84375C0.572544 0.785715 0.622768 0.729909 0.676339 0.676339C0.729352 0.623325 0.785155 0.572544 0.843192 0.525112C0.901784 0.47712 0.962053 0.432477 1.02455 0.390624C1.08705 0.348213 1.15178 0.309709 1.21819 0.273995C1.2846 0.238281 1.35212 0.206473 1.42187 0.177455C1.49163 0.148437 1.5625 0.122768 1.63449 0.101005C1.70647 0.078683 1.77902 0.060268 1.85323 0.0457589C1.9269 0.030692 2.00111 0.0195313 2.07645 0.0117187C2.15123 0.00390632 2.22656 0 2.3019 0H10.0435Z" fill="#BE185D"/>
</g>
<mask id="mask1_4382_581" style="mask-type:luminance" maskUnits="userSpaceOnUse" x="0" y="14" width="7" height="10">
<path d="M0 14.2857H6.78291V24H0V14.2857Z" fill="white"/>
</mask>
<g mask="url(#mask1_4382_581)">
<path fill-rule="evenodd" clip-rule="evenodd" d="M4.58203 23.9999H2.30357C2.22823 23.9999 2.1529 23.996 2.07757 23.9882C2.00279 23.9809 1.92857 23.9692 1.85435 23.9547C1.78069 23.9396 1.70759 23.9212 1.6356 23.8995C1.56362 23.8771 1.49274 23.852 1.42299 23.823C1.35323 23.794 1.28571 23.7616 1.21931 23.7259C1.1529 23.6907 1.08817 23.6517 1.02567 23.6098C0.962611 23.568 0.902344 23.5233 0.844307 23.4754C0.785715 23.4274 0.729909 23.3771 0.676896 23.3236C0.623325 23.2706 0.573101 23.2147 0.525112 23.1562C0.47712 23.0981 0.432477 23.0379 0.390624 22.9754C0.348773 22.9123 0.309709 22.8481 0.273995 22.7817C0.238281 22.7153 0.206473 22.6472 0.177455 22.5775C0.148437 22.5083 0.122768 22.4374 0.101004 22.3648C0.0786829 22.2929 0.0602677 22.2203 0.0452008 22.1461C0.030692 22.0724 0.0195313 21.9977 0.0117187 21.9229C0.00390632 21.8481 0 21.7728 0 21.6975V19.3476L0.369979 18.977L5.02176 14.3258L6.71875 16.0228L4.58203 23.9999Z" fill="#0F766E"/>
</g>
<mask id="mask2_4382_581" style="mask-type:luminance" maskUnits="userSpaceOnUse" x="11" y="11" width="13" height="13">
<path d="M11.3544 11.5714H24V23.9999H11.3544V11.5714Z" fill="white"/>
</mask>
<g mask="url(#mask2_4382_581)">
<path fill-rule="evenodd" clip-rule="evenodd" d="M23.9999 11.6277V21.6975C23.9999 21.7728 23.996 21.8482 23.9882 21.9229C23.9804 21.9977 23.9692 22.0725 23.9547 22.1461C23.9396 22.2204 23.9212 22.2929 23.8989 22.3649C23.8771 22.4375 23.8514 22.5083 23.8224 22.5775C23.794 22.6473 23.7616 22.7153 23.7259 22.7817C23.6902 22.8482 23.6517 22.9123 23.6093 22.9754C23.5674 23.0379 23.5228 23.0982 23.4748 23.1562C23.4268 23.2148 23.3766 23.2706 23.323 23.3236C23.27 23.3772 23.2142 23.4274 23.1561 23.4754C23.0975 23.5234 23.0373 23.568 22.9748 23.6099C22.9117 23.6517 22.8475 23.6908 22.7811 23.726C22.7147 23.7617 22.6466 23.794 22.5769 23.8231C22.5071 23.8521 22.4363 23.8772 22.3643 23.8995C22.2923 23.9213 22.2192 23.9397 22.1455 23.9547C22.0719 23.9693 21.9971 23.981 21.9223 23.9882C21.847 23.996 21.7722 24 21.6969 24H11.3933L12.6266 19.3951C12.7828 19.4224 12.9402 19.4458 13.0976 19.4659C13.2549 19.4855 13.4128 19.5016 13.5713 19.5133C13.7298 19.5256 13.8883 19.534 14.0473 19.5385C14.2058 19.5429 14.3643 19.5435 14.5233 19.5401C14.6824 19.5368 14.8409 19.5301 14.9993 19.5189C15.1578 19.5083 15.3157 19.4933 15.4731 19.4748C15.631 19.4564 15.7884 19.4341 15.9446 19.4079C16.1014 19.3822 16.2577 19.3521 16.4128 19.3186C16.568 19.2851 16.722 19.2477 16.8754 19.2064C17.0289 19.1657 17.1813 19.1205 17.3325 19.0725C17.4837 19.024 17.6338 18.972 17.7822 18.9163C17.9313 18.8604 18.0786 18.8013 18.2242 18.7388C18.3704 18.6757 18.5144 18.6099 18.6573 18.5401C18.8001 18.4704 18.9408 18.3973 19.0802 18.3208C19.2192 18.2444 19.3565 18.1646 19.4915 18.0814C19.6271 17.9983 19.7605 17.9118 19.8916 17.8219C20.0228 17.7327 20.1517 17.64 20.2778 17.544C20.4045 17.4486 20.5289 17.3499 20.6511 17.2477C20.7728 17.1461 20.8922 17.0412 21.0088 16.9336C21.126 16.8264 21.2398 16.7159 21.3514 16.6032C21.4631 16.4899 21.5719 16.3744 21.6779 16.2561C21.7839 16.1378 21.8866 16.0167 21.987 15.8934C22.0869 15.77 22.184 15.6445 22.2783 15.5167C22.3721 15.3889 22.463 15.2589 22.5507 15.1261C22.6388 14.9938 22.7231 14.8593 22.8046 14.7232C22.8855 14.587 22.9636 14.4486 23.0384 14.3085C23.1132 14.1679 23.184 14.0262 23.2521 13.8828C23.3196 13.7388 23.3838 13.5937 23.4446 13.4469C23.5055 13.3002 23.5624 13.1523 23.6165 13.0027C23.6701 12.8532 23.7198 12.7025 23.7661 12.5507C23.8124 12.3989 23.8554 12.246 23.8944 12.092C23.9329 11.938 23.9686 11.7834 23.9999 11.6277Z" fill="#6D28D9"/>
</g>
<path fill-rule="evenodd" clip-rule="evenodd" d="M16.6517 7.3483C16.7282 7.4242 16.8001 7.50401 16.8688 7.58716C16.9368 7.6703 17.001 7.75678 17.0607 7.84662C17.1204 7.93593 17.1763 8.02854 17.227 8.12342C17.2778 8.21828 17.3236 8.31593 17.3649 8.41526C17.4062 8.5146 17.4424 8.61617 17.4737 8.7194C17.5049 8.82209 17.5312 8.92644 17.5518 9.03246C17.573 9.13793 17.5886 9.24452 17.5992 9.35166C17.6098 9.45881 17.6154 9.56649 17.6154 9.6742C17.6154 9.7819 17.6098 9.88905 17.5992 9.9962C17.5886 10.1039 17.573 10.2099 17.5518 10.3159C17.5312 10.4214 17.5049 10.5258 17.4737 10.629C17.4424 10.7322 17.4062 10.8332 17.3649 10.9326C17.3236 11.0325 17.2778 11.1296 17.227 11.2244C17.1763 11.3199 17.121 11.4119 17.0607 11.5018C17.001 11.5911 16.9368 11.6776 16.8688 11.7607C16.8001 11.8439 16.7282 11.9236 16.6517 12.0001C16.5758 12.076 16.496 12.1485 16.4129 12.2166C16.3292 12.2852 16.2432 12.3494 16.1534 12.4091C16.0635 12.4688 15.9715 12.5241 15.8766 12.5749C15.7817 12.6256 15.6841 12.672 15.5847 12.7133C15.4854 12.7545 15.3838 12.7908 15.2806 12.8221C15.1779 12.8533 15.073 12.879 14.9675 12.9002C14.8621 12.9214 14.7555 12.937 14.6484 12.9476C14.5412 12.9583 14.4335 12.9633 14.3258 12.9633C14.2181 12.9633 14.111 12.9583 14.0033 12.9476C13.8961 12.937 13.7901 12.9214 13.6841 12.9002C13.5786 12.8796 13.4743 12.8533 13.371 12.8221C13.2678 12.7908 13.1668 12.7545 13.0669 12.7133C12.9675 12.672 12.8704 12.6256 12.775 12.5749C12.6802 12.5241 12.5881 12.4688 12.4982 12.4091C12.409 12.3494 12.3225 12.2852 12.2393 12.2166C12.1556 12.1485 12.0764 12.0765 11.9999 12.0001L9.67346 9.67364L14.3252 5.02185L16.6517 7.3483Z" fill="#2563EB"/>
<mask id="mask3_4382_581" style="mask-type:luminance" maskUnits="userSpaceOnUse" x="18" y="0" width="7" height="8">
<path d="M18.4973 0H24.0001V7.85715H18.4973V0Z" fill="white"/>
</mask>
<g mask="url(#mask3_4382_581)">
<path fill-rule="evenodd" clip-rule="evenodd" d="M21.697 0C21.7723 0 21.8477 0.00390632 21.9224 0.0117187C21.9972 0.0189732 22.072 0.030692 22.1457 0.0452008C22.2193 0.0602677 22.2924 0.0786829 22.3644 0.100446C22.437 0.122768 22.5078 0.147879 22.577 0.176897C22.6468 0.205915 22.7149 0.238281 22.7813 0.273995C22.8477 0.309709 22.9124 0.348213 22.9749 0.390067C23.0374 0.43192 23.0977 0.47712 23.1563 0.524552C23.2143 0.572544 23.2701 0.623325 23.3237 0.676339C23.3767 0.729909 23.4275 0.785715 23.4749 0.843749C23.5229 0.901784 23.5681 0.962611 23.61 1.02511C23.6518 1.08761 23.6903 1.15234 23.726 1.21875C23.7617 1.28515 23.7941 1.35323 23.8231 1.42243C23.8521 1.49219 23.8772 1.56306 23.8996 1.63504C23.9213 1.70703 23.9397 1.78013 23.9548 1.85435C23.9693 1.92801 23.9805 2.00223 23.9883 2.07757C23.9961 2.15234 24 2.22768 24 2.30301V7.71987C23.9052 7.24608 23.7757 6.78237 23.6122 6.32757C23.4487 5.87333 23.2528 5.43304 23.0246 5.00781C22.7963 4.58203 22.538 4.17579 22.2495 3.78851C21.9609 3.40123 21.6457 3.03683 21.3036 2.69643L18.6083 0H21.697Z" fill="#D97706"/>
</g>
</g>
<path d="M41.92 10.224C41.92 11.68 41.488 12.872 40.624 13.8C39.776 14.712 38.608 15.264 37.12 15.456C37.456 16.336 38.016 17.024 38.8 17.52C39.584 18 40.544 18.24 41.68 18.24H42.4V21H41.56C40.456 21 39.44 20.816 38.512 20.448C37.584 20.08 36.784 19.568 36.112 18.912C35.44 18.24 34.92 17.448 34.552 16.536C34.184 15.608 34 14.592 34 13.488V12.888H35.992C36.904 12.888 37.64 12.656 38.2 12.192C38.76 11.712 39.04 11.056 39.04 10.224C39.04 9.408 38.768 8.76 38.224 8.28C37.68 7.8 36.936 7.56 35.992 7.56H32.32V21H29.44V4.92H35.992C36.904 4.92 37.72 5.048 38.44 5.304C39.176 5.544 39.8 5.896 40.312 6.36C40.824 6.824 41.216 7.384 41.488 8.04C41.776 8.68 41.92 9.408 41.92 10.224ZM43.4744 21L49.7384 4.92H52.6184L58.8584 21H55.7624L54.5864 17.88H47.7464L46.5704 21H43.4744ZM48.7544 15.24H53.6024L51.1784 8.808L48.7544 15.24Z" fill="#A0A7B8"/>
<defs>
<clipPath id="clip0_4382_581">
<rect width="24" height="24" fill="white"/>
</clipPath>
</defs>
</svg>
